<?xml version="1.0" encoding="utf-8"?>
<!-- Generator: Adobe Illustrator 22.0.1, SVG Export Plug-In . SVG Version: 6.00 Build 0)  -->
<svg version="1.1" id="Слой_1" xmlns="http://www.w3.org/2000/svg" xmlns:xlink="http://www.w3.org/1999/xlink" x="0px" y="0px"
	 width="311.8px" height="311.8px" viewBox="0 0 311.8 311.8" style="enable-background:new 0 0 311.8 311.8;" xml:space="preserve"
	>
<g>
	<path style="fill:#424548;" d="M247.7,124.4c-2.2,0-4.4,0.3-6.5,0.8c-3.8-0.8-7.6-1-11.4-0.5c-0.2,0-0.4,0.1-0.7,0.1
		c0.9-3.3,1.8-6.5,3-9.6c1.5-4,3.5-7.9,6.2-11.1c2.7-3.2,6.1-5.9,10-7.4c1.9-0.7,4-1.1,5.9-0.9c2.1,0.2,4,0.7,4.8,2.2
		c0.9,1.6,0.7,3.7-1.1,4c-0.9,0.2-2,0.2-2.6-0.3c-0.3-0.2-0.6-0.6-0.7-1c-0.1-0.2-0.1-0.4-0.1-0.7c-0.1-0.3,0.3-0.4-0.5-0.8l-0.2,0
		c-0.9,0.1-0.5,0.6-0.6,0.9c0,0.3,0,0.7,0.1,1c0.1,0.7,0.5,1.4,1.1,1.8c1.2,1,2.6,1,3.9,0.9c1.4-0.1,2.9-1.3,3.2-2.7
		c0.4-1.4,0.2-2.8-0.3-4.1c-1.2-2.8-4.3-3.8-6.5-4.1c-2.5-0.5-5.1-0.1-7.4,0.5c-4.7,1.4-8.8,4.2-12.2,7.7c-3.4,3.5-6,7.5-8.1,11.8
		c-2.2,4.4-3.7,9-4.8,13.7c-1.6,0.6-3.2,1.4-4.8,2.3c-0.9-1.5-1.8-2.9-2.5-4.1l-0.7-1c-1.7-2.7-3.6-5.3-5.6-7.8
		c-0.1-3.3,0.1-6.6,0.8-9.8c1-4.2,2.7-8.6,5.9-11c1.5-1.2,3.6-1.9,5.5-1.8c1.8,0.1,3.8,1.4,4.3,3.1c0.5,1.7-0.6,3.7-2.4,4.6
		c-0.9,0.4-1.8,0.6-2.7,0.2c-0.4-0.2-0.8-0.4-1.2-0.8c-0.2-0.2-0.3-0.4-0.5-0.6c-0.2-0.2-0.1-0.5-0.8-0.5l-0.4,0.2
		c0,2.8,3.9,4.1,6.2,2.9c2.4-1,4.3-3.6,3.7-6.6c-0.8-2.9-3.3-4.6-5.9-5c-2.7-0.3-5.3,0.4-7.4,1.9c-2.1,1.5-3.7,3.6-4.9,5.7
		c-1.2,2.2-2,4.3-2.8,6.7c-0.6,2-1,4-1.4,6c-18.4-20.2-45.7-31.7-73-29.9c-10.6,0.7-46.8,5.5-67.9,38.4
		c-11.2,17.5-15.4,39.6-11.6,60.8c1,5.7,3,10.7,5.9,15c3.8,5.7,10.7,9.6,20.6,12c4,4,8.6,7.3,13.7,10c0.2,8.9,2.4,17.9,7.2,25.4
		c0.8,1.3,2.5,1.9,4,1.3c1.7-0.7,2.5-2.6,1.8-4.3l0,0c-2.3-5.8-3-11.9-2.5-18c9.3,2.9,19,3.9,28.7,3.9c2.1,0,4.1-0.1,6.2-0.1
		c0,4.8-0.8,9.7-2.6,14.3l0,0c-0.6,1.4-0.1,3.1,1.3,4c1.5,1,3.6,0.5,4.5-1c3.4-5.3,5.5-11.5,6.5-17.8c11.8-0.9,21.9-2.6,30.7-5.3
		c0.3,6.7-0.9,13.5-4,19.7l0,0c-0.7,1.4-0.3,3.1,0.9,4.1c1.4,1.1,3.5,0.8,4.6-0.6c5.9-7.7,9-17.6,9.6-27.4c3.2-1.5,6.2-3.1,9-4.9
		c0.8-0.5,1.5-1.1,2.2-1.6c1.2,0,2.4,0.1,3.5,0.1c1.1,0,2.2,0,3.2,0c7.1-0.2,13.1-1.5,18.5-2.7c6.5-1.4,11.4-3,14.3-4.1
		c5.9-2.2,9.8-3.6,14-6.7c7-5.1,10.4-11.4,11.8-14l0,0c0.8-1.4,2.1-3.9,3.3-7c5.4-5.5,8.5-12.9,8.5-20.6
		C277.4,137.7,264.1,124.4,247.7,124.4z"/>
	<path style="fill:#D5C1E0;" d="M212.5,124.9l0.7,1c0.8,1.2,1.7,2.6,2.5,4.1c-1.4,0.9-2.8,1.9-4.1,3c-0.1-0.3-0.2-0.6-0.3-0.9
		c-1.1-4.1-2.1-8.3-2.5-12.6C210.1,121.3,211.4,123.1,212.5,124.9z"/>
	<path style="fill:#D5C1E0;" d="M108.7,208.2c-26.6,0.5-42.6-4-49.2-13.7c-2.8-4.1-4.6-8.9-5.6-14.3v0c-3.7-20.6,0.4-42.3,11.4-59.3
		c20.6-32.2,56-36.9,66.4-37.5c1.8-0.1,3.6-0.2,5.4-0.2c25.5,0,50.3,11.5,67.1,30.6c0,0,0,0,0,0c-0.2,1.9-0.4,3.7-0.4,5.6
		c-0.1,6.4,0.9,12.7,2.8,18.8c-12.7,15.6-9.6,37-8.5,42.6c-1.5,1.2-2.9,2.5-4.4,3.8c-1.2,1-2.3,2.1-3.5,3.2c0,0,0,0,0,0
		C165.6,200.7,137.6,207.7,108.7,208.2z"/>
	<ellipse style="fill:#424548;" cx="154.5" cy="129.6" rx="25.7" ry="25.2"/>
	<ellipse style="fill:#424548;" cx="91" cy="152.1" rx="20.3" ry="19.9"/>
	<path style="fill:#FFFFFF;" d="M257.9,145c-5.7-5.7-13.2-8.8-21.2-8.8c-16.6,0-30.1,13.5-30.1,30c0,8,3.1,15.6,8.8,21.3
		c5.7,5.7,13.2,8.8,21.2,8.8h0c16.6,0,30-13.5,30.1-30C266.7,158.2,263.6,150.7,257.9,145z M242.5,157.2c-5.3,0-9.7-4.3-9.7-9.7
		s4.3-9.7,9.7-9.7c5.3,0,9.7,4.3,9.7,9.7C252.1,152.9,247.8,157.2,242.5,157.2z"/>
	<g>
		<path style="fill:#FFFFFF;" d="M245.2,130.3c1.6-2.2,4.1-3.5,6.8-3.6c-1.4-0.2-2.9-0.4-4.3-0.4c-8,0-15.6,3.5-20.9,9.5
			c3.2-1.1,6.5-1.6,9.8-1.6c2.4,0,4.8,0.3,7.1,0.8C243.5,133.4,244.4,131.5,245.2,130.3z"/>
		<path style="fill:#FFFFFF;" d="M275.4,154.1c0-12.5-8.3-23-19.6-26.5c2.8,1.4,4.8,4.3,4.8,7.6c0,1.6-0.4,3.1-1.2,4.4
			c-0.2,0.4-1.1,1.5-1.9,2.3c0.6,0.5,1.3,1.1,1.9,1.7c6,6.1,9.4,14.1,9.4,22.7c0,2.1-0.3,4.3-0.8,6.6
			C272.7,167.8,275.4,161.1,275.4,154.1z"/>
	</g>
	<path style="fill:#48423B;stroke:#302619;stroke-width:3.6635;stroke-miterlimit:10;" d="M238.8,179.5"/>
</g>
</svg>
