<svg id="вар2" xmlns="http://www.w3.org/2000/svg" viewBox="0 0 135.03 88.96"><defs><style>.cls-1{fill:none;stroke-linecap:round;}.cls-1,.cls-2,.cls-3,.cls-4{stroke:#000;stroke-miterlimit:10;}.cls-2{fill:#e4cffc;}.cls-3{fill:#fff;}</style></defs><title>logo-colours</title><g id="букашка2"><path d="M324.66,490.58a11.09,11.09,0,0,1-1.57-2,22.88,22.88,0,0,1-1.42-2.44c-0.5-1-1-2.1-1.46-3.34-0.24-.62-0.46-1.28-0.7-2l-0.63-2.13c-0.4-1.47-.74-3-1.05-4.66-0.14-.83-0.29-1.61-0.39-2.52s-0.2-1.66-.21-2.58a25,25,0,0,1,.41-5.37,25.27,25.27,0,0,1,1.52-5.13,23.86,23.86,0,0,1,2.49-4.52,17.32,17.32,0,0,1,1.57-1.91c0.29-.29.57-0.57,0.89-0.83a4.07,4.07,0,0,1,1.07-.67,4.5,4.5,0,0,1,2.36-.4,3,3,0,0,1,2,1.14,3.26,3.26,0,0,1,.28,3.75,2.37,2.37,0,0,1-1.37.92,2.83,2.83,0,0,1-1.37.09,2.23,2.23,0,0,1-1.51-1.18,1.83,1.83,0,0,1-.19-0.47,0.32,0.32,0,0,1,.08-0.2l0.14,0a0.37,0.37,0,0,1,.17.1c0,0.08.09,0.22,0.19,0.38a1.75,1.75,0,0,0,1.21.89,2.26,2.26,0,0,0,1.11-.12,1.76,1.76,0,0,0,1-.73,2.59,2.59,0,0,0-.33-2.9,2.15,2.15,0,0,0-1.49-.82,3.65,3.65,0,0,0-1.87.4,3.13,3.13,0,0,0-.83.57c-0.27.24-.53,0.51-0.78,0.79a16.29,16.29,0,0,0-1.41,1.85,18.81,18.81,0,0,0-2.14,4.38,20.59,20.59,0,0,0-1.07,4.91,26.58,26.58,0,0,0,0,5c0,0.79.15,1.65,0.26,2.48s0.28,1.6.39,2.39c0.27,1.59.6,3.1,0.92,4.54s0.71,2.77,1.08,4,0.77,2.33,1.17,3.28,0.76,1.78,1.1,2.43,0.65,1.14.85,1.47,0.32,0.46.33,0.47Z" transform="translate(-223.12 -450.12)"/><path d="M321.92,491.67a11.21,11.21,0,0,1-.65-2.36,25,25,0,0,1-.36-2.73c-0.07-1.06-.1-2.25-0.07-3.55s0.13-2.7.3-4.17l0.32-2.26,0.42-2.34,0.51-2.4c0.24-.85.43-1.59,0.7-2.43A23.63,23.63,0,0,1,324,467c0.33-.8.72-1.59,1.13-2.36a30.15,30.15,0,0,1,2.84-4.35,28.28,28.28,0,0,1,3.44-3.67,16.16,16.16,0,0,1,3.95-2.64,5.68,5.68,0,0,1,1.13-.36,5,5,0,0,1,1.17-.06,4.11,4.11,0,0,1,2.1.69,3,3,0,0,1,1.15,1.69,2.88,2.88,0,0,1,0,1.86,1.75,1.75,0,0,1-1.3,1.07,3,3,0,0,1-1.35,0,1.56,1.56,0,0,1-.94-0.67,1.76,1.76,0,0,1-.24-0.8,2.14,2.14,0,0,1,0-.5,0.3,0.3,0,0,1,.19-0.14h0.06a0.38,0.38,0,0,1,.15.17,2.87,2.87,0,0,0,0,.41,1.09,1.09,0,0,0,.87,1,1.6,1.6,0,0,0,1.9-.75,2.65,2.65,0,0,0-1-2.6,3.21,3.21,0,0,0-1.66-.44,3.61,3.61,0,0,0-1.82.42,15.09,15.09,0,0,0-3.54,2.6,23.87,23.87,0,0,0-3.08,3.63,28.5,28.5,0,0,0-2.43,4.28A39.46,39.46,0,0,0,325,470c-0.24.75-.45,1.62-0.66,2.35l-0.56,2.32-0.47,2.26L323,479.12c-0.19,1.42-.38,2.76-0.48,4s-0.14,2.39-.13,3.4a23.7,23.7,0,0,0,.12,2.61c0.07,0.72.18,1.27,0.24,1.64s0.13,0.53.13,0.54Z" transform="translate(-223.12 -450.12)"/><line class="cls-1" x1="74.83" y1="88.46" x2="74.59" y2="57.86"/><line class="cls-1" x1="50.62" y1="63.32" x2="50.58" y2="88.46"/><line class="cls-1" x1="25.29" y1="64.18" x2="25.2" y2="88.46"/><path class="cls-2" d="M223.62,514.32c-0.42-35.5,21.33-59.48,54.26-59.45s54.18,26.55,53.25,60.55c0,0-23.5-.51-56.43-0.54S223.62,514.32,223.62,514.32Z" transform="translate(-223.12 -450.12)"/><circle class="cls-3" cx="115.03" cy="36.3" r="19.5"/><circle class="cls-3" cx="107.53" cy="44.29" r="19.5"/><ellipse class="cls-4" cx="68.42" cy="28.66" rx="13.12" ry="12.91"/><ellipse class="cls-4" cx="26.76" cy="37.71" rx="10.39" ry="10.17"/><ellipse class="cls-4" cx="113.37" cy="30.63" rx="2.67" ry="2.83"/><ellipse class="cls-4" cx="122" cy="22.01" rx="2.67" ry="2.83"/></g></svg>